<?xml version="1.0" standalone="no"?><!DOCTYPE svg PUBLIC "-//W3C//DTD SVG 1.1//EN" "http://www.w3.org/Graphics/SVG/1.1/DTD/svg11.dtd"><svg t="1498014235635" class="icon" style="" viewBox="0 0 1452 1024" version="1.1" xmlns="http://www.w3.org/2000/svg" p-id="1010" xmlns:xlink="http://www.w3.org/1999/xlink" width="22.6875" height="16"><defs><style type="text/css"></style></defs><path d="M104.759447 748.888479c-6.134562 0-12.269124-2.359447-16.988018-7.078341-8.965899-9.437788-8.965899-24.538249 0.471889-33.504147 86.82765-83.524424 189.22765-153.835945 295.402765-202.440553 122.691244-56.154839 249.157604-84.940092 376.567742-84.940092 257.651613 0 464.81106 88.715207 672.442396 287.380645 9.437788 8.965899 9.909677 24.066359 0.943779 33.504147-8.965899 9.437788-24.066359 9.909677-33.504147 0.943779-197.721659-189.699539-394.971429-274.167742-639.410138-274.167742-225.563134 0-458.676498 100.040553-639.410138 274.167742C116.556682 746.529032 110.42212 748.888479 104.759447 748.888479z" p-id="1011" fill="#e0620d"></path><path d="M763.045161 353.917051c-13.212903 0-23.59447-10.381567-23.59447-23.59447L739.450691 50.964055c0-13.212903 10.381567-23.59447 23.59447-23.59447s23.59447 10.381567 23.59447 23.59447L786.639631 330.322581C786.639631 343.535484 775.786175 353.917051 763.045161 353.917051z" p-id="1012" fill="#e0620d"></path><path d="M448.294931 401.105991c-9.437788 0-18.403687-5.662673-22.178802-15.100461L333.153917 148.173272c-4.718894-12.269124 1.415668-25.953917 13.212903-30.672811 12.269124-4.718894 25.953917 1.415668 30.672811 13.212903l92.962212 237.832258c4.718894 12.269124-1.415668 25.953917-13.212903 30.672811C453.957604 400.162212 451.126267 401.105991 448.294931 401.105991z" p-id="1013" fill="#e0620d"></path><path d="M186.868203 557.773272c-6.134562 0-12.741014-2.359447-17.459908-7.55023L14.156682 383.174194c-8.965899-9.437788-8.494009-24.538249 0.943779-33.504147 9.437788-8.965899 24.538249-8.494009 33.504147 0.943779l155.723502 167.048848c8.965899 9.437788 8.494009 24.538249-0.943779 33.504147C198.665438 555.413825 193.002765 557.773272 186.868203 557.773272z" p-id="1014" fill="#e0620d"></path><path d="M748.888479 527.57235c-61.817512 0-117.97235 23.122581-160.442396 61.345622 57.098618 2.831336 102.4 50.020276 102.4 107.590783 0 59.458065-48.132719 107.590783-107.590783 107.590783-28.785253 0-55.21106-11.325346-74.558525-30.200922 2.831336 130.241475 109.478341 235.000922 240.663594 235.000922 133.072811 0 240.663594-107.590783 240.663594-240.663594S881.489401 527.57235 748.888479 527.57235z" p-id="1015" fill="#e0620d"></path></svg>