<?xml version="1.0" standalone="no"?><!DOCTYPE svg PUBLIC "-//W3C//DTD SVG 1.1//EN" "http://www.w3.org/Graphics/SVG/1.1/DTD/svg11.dtd"><svg t="1498032199068" class="icon" style="" viewBox="0 0 1024 1024" version="1.1" xmlns="http://www.w3.org/2000/svg" p-id="2375" xmlns:xlink="http://www.w3.org/1999/xlink" width="32" height="32"><defs><style type="text/css"></style></defs><path d="M974.165333 45.056l-444.416 37.546667c-17.066667 1.365333-30.72 15.018667-30.72 30.037333l0 344.064c0 15.018667 13.653333 27.306667 30.72 27.306667l444.416-2.730667c19.797333 0 36.181333-13.653333 36.181333-30.037333L1010.346667 71.68C1010.346667 55.296 993.962667 43.008 974.165333 45.056zM393.898667 94.208 34.133333 124.928c-13.653333 1.365333-24.576 12.970667-24.576 26.624l0 310.613333c0 13.653333 10.922667 24.576 24.576 24.576l359.765333-2.048c16.384 0 29.354667-12.288 29.354667-27.306667L423.253333 118.784C422.570667 103.765333 409.6 92.842667 393.898667 94.208zM974.165333 552.96l-444.416-2.730667c-17.066667 0-30.72 12.288-30.72 27.306667l0 344.064c0 15.018667 13.653333 28.672 30.72 30.037333l444.416 37.546667c19.797333 1.365333 36.181333-10.24 36.181333-26.624L1010.346667 582.997333C1010.346667 566.613333 993.962667 552.96 974.165333 552.96zM393.898667 548.864 34.133333 546.816c-13.653333 0-24.576 10.922667-24.576 24.576l0 310.613333c0 13.653333 10.922667 25.258667 24.576 26.624l359.765333 30.72c16.384 1.365333 29.354667-9.557333 29.354667-24.576L423.253333 576.170667C422.570667 561.152 409.6 549.546667 393.898667 548.864z" p-id="2376" fill="#dbdbdb"></path></svg>